<svg width="68" height="68" viewBox="0 0 68 68" fill="none" xmlns="http://www.w3.org/2000/svg">
<circle cx="34" cy="34" r="34" fill="#FF8600"/>
<path d="M40.7917 51H45.8958C47.2495 51 48.5478 50.4622 49.505 49.505C50.4622 48.5478 51 47.2495 51 45.8958V40.7917M51 26.2083V21.1042C51 19.7505 50.4622 18.4522 49.505 17.495C48.5478 16.5378 47.2495 16 45.8958 16H40.7917M26.2083 51H21.1042C19.7505 51 18.4522 50.4622 17.495 49.505C16.5378 48.5478 16 47.2495 16 45.8958V40.7917M16 26.2083V21.1042C16 19.7505 16.5378 18.4522 17.495 17.495C18.4522 16.5378 19.7505 16 21.1042 16H26.2083" stroke="white" stroke-width="3" stroke-linecap="round" stroke-linejoin="round"/>
<line x1="19" y1="35" x2="47" y2="35" stroke="white" stroke-width="2"/>
</svg>
